HIERARCHY
ROOT Hips
{
	OFFSET 0.000000 0.000000 0.000000
	CHANNELS 6 Xposition Yposition Zposition Zrotation Yrotation Xrotation 
	JOINT LHipJoint
	{
		OFFSET 0.000000 0.000000 0.000000
		CHANNELS 3 Zrotation Yrotation Xrotation
		JOINT LeftUpLeg
		{
			OFFSET 1.363060 -1.794630 0.839290
			CHANNELS 3 Zrotation Yrotation Xrotation
			JOINT LeftLeg
			{
				OFFSET 2.448110 -6.726130 0.000000
				CHANNELS 3 Zrotation Yrotation Xrotation
				JOINT LeftFoot
				{
					OFFSET 2.562200 -7.039590 0.000000
					CHANNELS 3 Zrotation Yrotation Xrotation
					JOINT LeftToeBase
					{
						OFFSET 0.157640 -0.433110 2.322550
						CHANNELS 3 Zrotation Yrotation Xrotation
						End Site
						{
							OFFSET 0.000000 0.000000 0.000000
						}
					}
				}
			}
		}
	}
	JOINT RHipJoint
	{
		OFFSET 0.000000 0.000000 0.000000
		CHANNELS 3 Zrotation Yrotation Xrotation
		JOINT RightUpLeg
		{
			OFFSET -1.305520 -1.794630 0.839290
			CHANNELS 3 Zrotation Yrotation Xrotation
			JOINT RightLeg
			{
				OFFSET -2.542530 -6.985550 0.000000
				CHANNELS 3 Zrotation Yrotation Xrotation
				JOINT RightFoot
				{
					OFFSET -2.568260 -7.056230 0.000000
					CHANNELS 3 Zrotation Yrotation Xrotation
					JOINT RightToeBase
					{
						OFFSET -0.164730 -0.452590 2.363150
						CHANNELS 3 Zrotation Yrotation Xrotation
						End Site
						{
							OFFSET 0.000000 0.000000 0.000000
						}
					}
				}
			}
		}
	}
	JOINT LowerBack
	{
		OFFSET 0.000000 0.000000 0.000000
		CHANNELS 3 Zrotation Yrotation Xrotation
		JOINT Spine
		{
			OFFSET 0.028270 2.035590 -0.193380
			CHANNELS 3 Zrotation Yrotation Xrotation
			JOINT Spine1
			{
				OFFSET 0.056720 2.048850 -0.042750
				CHANNELS 3 Zrotation Yrotation Xrotation
				JOINT Neck
				{
					OFFSET 0.000000 0.000000 0.000000
					CHANNELS 3 Zrotation Yrotation Xrotation
					JOINT Neck1
					{
						OFFSET -0.054170 1.746240 0.172020
						CHANNELS 3 Zrotation Yrotation Xrotation
						JOINT Head
						{
							OFFSET 0.104070 1.761360 -0.123970
							CHANNELS 3 Zrotation Yrotation Xrotation
							End Site
							{
								OFFSET 0.000000 0.000000 0.000000
							}
						}
					}
				}
				JOINT LeftShoulder
				{
					OFFSET 0.000000 0.000000 0.000000
					CHANNELS 3 Zrotation Yrotation Xrotation
					JOINT LeftArm
					{
						OFFSET 3.362410 1.200890 -0.311210
						CHANNELS 3 Zrotation Yrotation Xrotation
						JOINT LeftForeArm
						{
							OFFSET 4.983000 -0.000000 -0.000000
							CHANNELS 3 Zrotation Yrotation Xrotation
							JOINT LeftHand
							{
								OFFSET 3.483560 -0.000000 -0.000000
								CHANNELS 3 Zrotation Yrotation Xrotation
								JOINT LeftFingerBase
								{
									OFFSET 0.000000 0.000000 0.000000
									CHANNELS 3 Zrotation Yrotation Xrotation
									JOINT LeftHandIndex1
									{
										OFFSET 0.715260 -0.000000 -0.000000
										CHANNELS 3 Zrotation Yrotation Xrotation
										End Site
										{
											OFFSET 0.000000 0.000000 0.000000
										}
									}
								}
								JOINT LThumb
								{
									OFFSET 0.000000 0.000000 0.000000
									CHANNELS 3 Zrotation Yrotation Xrotation
									End Site
									{
										OFFSET 0.000000 0.000000 0.000000
									}
								}
							}
						}
					}
				}
				JOINT RightShoulder
				{
					OFFSET 0.000000 0.000000 0.000000
					CHANNELS 3 Zrotation Yrotation Xrotation
					JOINT RightArm
					{
						OFFSET -3.136600 1.374050 -0.404650
						CHANNELS 3 Zrotation Yrotation Xrotation
						JOINT RightForeArm
						{
							OFFSET -5.241900 -0.000000 -0.000000
							CHANNELS 3 Zrotation Yrotation Xrotation
							JOINT RightHand
							{
								OFFSET -3.444170 -0.000000 -0.000000
								CHANNELS 3 Zrotation Yrotation Xrotation
								JOINT RightFingerBase
								{
									OFFSET 0.000000 0.000000 0.000000
									CHANNELS 3 Zrotation Yrotation Xrotation
									JOINT RightHandIndex1
									{
										OFFSET -0.622530 -0.000000 -0.000000
										CHANNELS 3 Zrotation Yrotation Xrotation
										End Site
										{
											OFFSET 0.000000 0.000000 0.000000
										}
									}
								}
								JOINT RThumb
								{
									OFFSET 0.000000 0.000000 0.000000
									CHANNELS 3 Zrotation Yrotation Xrotation
									End Site
									{
										OFFSET 0.000000 0.000000 0.000000
									}
								}
							}
						}
					}
				}
			}
		}
	}
}
MOTION
Frames: 11
Frame Time: 0.008333
-11.268034 16.897229 -0.516333 -58.362071 87.959110 -47.315252 -11.702912 3.530574 -0.651668 -3.861214 5.154169 -2.736833 -0.250542 2.192064 36.622611 0.604673 1.144505 7.071064 0.126600 0.000000 -79.188100 8.059775 -0.955161 3.375129 10.044258 7.066391 -32.029264 2.874905 -0.107658 8.484795 0.039324 -1.326807 10.216383 -1.192000 0.000000 -33.693200 4.217744 -3.047551 -2.424746 -0.021401 -3.517325 -3.297940 -7.899282 -3.561208 0.774261 10.307486 -6.927923 -6.109100 -4.942521 -0.386659 0.368600 0.000000 0.000000 0.000000 -4.614873 3.868022 1.667944 -62.442737 -11.471240 12.250805 -3.051458 -34.010443 -0.010052 6.244815 0.734185 0.036280 -0.109343 0.095619 0.000000 0.000000 0.000000 0.000000 0.000000 0.000000 0.000000 22.360484 -6.298438 0.581621 70.213003 -0.322815 -6.969875 3.725605 15.448921 0.006571 0.752707 3.930622 0.023692 0.079139 -0.043046 -0.000000 0.000000 0.000000 0.000000 0.000000 0.000000 0.000000 
-11.093927 16.921089 -0.504494 -67.305680 87.696348 -56.323206 -11.941880 3.439829 -0.685805 -3.184396 5.528953 -4.228501 0.053507 2.320995 39.568870 0.784411 1.675481 9.761717 0.213799 -0.000000 -77.116500 7.909250 -1.089867 3.332420 10.680381 7.112367 -31.623861 2.917360 -0.184033 9.328557 0.021298 -1.352442 9.627211 -1.179000 0.000000 -33.036800 4.688195 -2.993190 -2.395598 0.063617 -3.494940 -3.310954 -7.862576 -3.539702 0.748554 10.201873 -6.771744 -6.121601 -4.932686 -0.386103 0.367275 0.000000 0.000000 0.000000 -4.688659 4.031543 1.648687 -63.232444 -10.776244 12.095085 -3.027908 -33.362588 -0.009750 6.201603 0.806713 0.040234 -0.104859 0.091942 0.000000 0.000000 0.000000 0.000000 0.000000 0.000000 0.000000 22.162973 -6.080710 0.595267 70.175983 -0.113474 -6.940507 3.756962 15.263515 0.006641 0.754522 3.905491 0.023496 0.080456 -0.043477 -0.000000 0.000000 0.000000 0.000000 0.000000 0.000000 0.000000 
-10.923760 16.944647 -0.491623 -74.243955 87.437016 -63.312067 -12.155358 3.316444 -0.706557 -2.636790 5.801439 -5.791407 0.326654 2.425480 42.524923 0.997764 2.462746 12.233896 0.408000 0.000001 -73.584400 7.775347 -1.211669 3.273925 11.296224 7.051961 -31.179052 2.965201 -0.243105 10.065717 0.000826 -1.379276 8.935326 -1.162600 -0.000001 -32.385900 5.086438 -2.939377 -2.359146 0.133952 -3.467473 -3.321424 -7.830441 -3.513610 0.719861 10.124999 -6.611507 -6.130557 -4.923169 -0.385593 0.366691 0.000000 0.000000 0.000000 -4.708630 4.163460 1.637159 -64.013858 -10.101989 11.971378 -3.005049 -32.669888 -0.009459 6.132998 0.904653 0.045188 -0.100471 0.088376 0.000000 0.000000 0.000000 0.000000 0.000000 0.000000 0.000000 21.997315 -5.855958 0.610894 70.146117 0.116255 -6.862061 3.782227 15.141153 0.006725 0.770285 3.896936 0.024000 0.081421 -0.044130 -0.000000 0.000000 0.000000 0.000000 0.000000 0.000000 0.000000 
-10.757610 16.967910 -0.477340 -80.040960 87.208011 -69.146256 -12.336627 3.167517 -0.715686 -2.235647 5.961509 -7.407869 0.561977 2.512861 45.457074 1.231326 3.532612 14.338957 0.746100 0.000000 -68.856801 7.662340 -1.318730 3.201525 11.865115 6.890951 -30.694410 3.014297 -0.284573 10.681067 -0.021661 -1.404841 8.174578 -1.142000 0.000001 -31.727201 5.399647 -2.888798 -2.315950 0.186552 -3.436719 -3.328713 -7.804010 -3.484442 0.691384 10.081362 -6.462166 -6.139241 -4.914764 -0.385168 0.365977 0.000000 0.000000 0.000000 -4.679909 4.261437 1.632080 -64.771820 -9.453671 11.890198 -2.983987 -31.943381 -0.009167 6.034318 1.027758 0.051244 -0.096258 0.084874 0.000000 0.000000 0.000000 0.000000 0.000000 0.000000 0.000000 21.875525 -5.641427 0.628152 70.115764 0.381534 -6.702304 3.800424 15.073979 0.006822 0.788037 3.909086 0.024706 0.082078 -0.044980 -0.000000 0.000000 0.000000 0.000000 0.000000 0.000000 0.000000 
-10.595321 16.991038 -0.461845 -85.324962 87.013800 -74.453752 -12.488460 2.999403 -0.715307 -1.971640 6.013865 -9.067555 0.760321 2.591402 48.334659 1.472450 4.882812 15.965443 1.240601 0.000000 -63.410900 7.566931 -1.412782 3.120130 12.377168 6.651518 -30.166802 3.063269 -0.307199 11.154017 -0.046564 -1.436025 7.383246 -1.120400 0.000000 -31.048700 5.632739 -2.842254 -2.269470 0.221882 -3.404080 -3.333975 -7.783995 -3.453479 0.662192 10.067777 -6.317225 -6.144538 -4.908198 -0.384904 0.366004 0.000000 0.000000 0.000000 -4.617044 4.325315 1.634183 -65.489878 -8.830560 11.863163 -2.965548 -31.198963 -0.008867 5.901709 1.176712 0.058002 -0.092275 0.081421 0.000000 0.000000 0.000000 0.000000 0.000000 0.000000 0.000000 21.795934 -5.431568 0.646810 70.084740 0.673563 -6.494386 3.812102 15.059968 0.006937 0.810566 3.940228 0.025713 0.082413 -0.046036 -0.000000 0.000000 0.000000 0.000000 0.000000 0.000000 0.000000 
-10.436672 17.014180 -0.445231 -90.416397 86.854315 -79.554664 -12.613782 2.819205 -0.706677 -1.837201 5.962730 -10.757572 0.927201 2.668319 51.123724 1.712554 6.490883 17.054826 1.877900 0.000000 -57.813300 7.487422 -1.494242 3.032789 12.822866 6.352412 -29.597590 3.110824 -0.311055 11.476610 -0.072955 -1.471078 6.592994 -1.098000 0.000000 -30.358600 5.788395 -2.799821 -2.221638 0.240423 -3.370006 -3.336851 -7.770319 -3.420960 0.635675 10.082239 -6.187033 -6.149803 -4.903484 -0.384774 0.365856 0.000000 0.000000 0.000000 -4.534133 4.365522 1.641818 -66.155567 -8.242524 11.903793 -2.950766 -30.445885 -0.008553 5.733300 1.348783 0.065264 -0.088594 0.077985 0.000000 0.000000 0.000000 0.000000 0.000000 0.000000 0.000000 21.759043 -5.237918 0.665712 70.046901 1.004548 -6.220254 3.817361 15.088357 0.007066 0.826665 3.992392 0.026620 0.082521 -0.047271 -0.000000 0.000000 0.000000 0.000000 0.000000 0.000000 0.000000 
-10.281217 17.037556 -0.427810 -95.508085 86.720924 -84.637994 -12.718268 2.632132 -0.688135 -1.814971 5.813425 -12.474463 1.070369 2.747905 53.796739 1.946731 8.307035 17.592792 2.615900 0.000001 -52.573900 7.419299 -1.565057 2.945988 13.201265 6.020359 -28.995614 3.156567 -0.296314 11.645951 -0.100588 -1.514285 5.832505 -1.077299 -0.000000 -29.672300 5.877822 -2.760213 -2.181372 0.244479 -3.334602 -3.340408 -7.762586 -3.387163 0.607257 10.116756 -6.055060 -6.147192 -4.901041 -0.384886 0.367775 0.000000 0.000000 0.000000 -4.445829 4.372807 1.655821 -66.759080 -7.665180 12.005663 -2.938981 -29.711739 -0.008218 5.527053 1.543335 0.072628 -0.085151 0.074528 0.000000 0.000000 0.000000 0.000000 0.000000 0.000000 0.000000 21.753589 -5.044109 0.685472 70.007644 1.352640 -5.940482 3.817505 15.156677 0.007208 0.844321 4.061139 0.027630 0.082386 -0.048722 -0.000000 0.000000 0.000000 0.000000 0.000000 0.000000 0.000000 
-10.128737 17.061361 -0.409507 -100.605679 86.614643 -89.713788 -12.801134 2.444706 -0.661579 -1.904152 5.572153 -14.196863 1.195874 2.833080 56.323429 2.172061 10.264848 17.591023 3.393801 0.000000 -47.944700 7.366154 -1.622916 2.857841 13.501494 5.662073 -28.365331 3.198156 -0.266074 11.679738 -0.126885 -1.551644 5.117860 -1.054599 -0.000000 -29.033300 5.896769 -2.722851 -2.144029 0.233706 -3.296756 -3.341818 -7.760017 -3.350723 0.584558 10.170864 -5.941899 -6.146084 -4.900118 -0.385089 0.369059 0.000000 0.000000 0.000000 -4.361040 4.376303 1.672603 -67.294260 -7.128877 12.187928 -2.931868 -28.991127 -0.007864 5.287532 1.751655 0.079397 -0.082082 0.071043 0.000000 0.000000 0.000000 0.000000 0.000000 0.000000 0.000000 21.782118 -4.870993 0.703670 69.958598 1.745222 -5.602038 3.812076 15.249111 0.007361 0.843688 4.149337 0.028239 0.082165 -0.050324 -0.000000 0.000000 0.000000 0.000000 0.000000 0.000000 0.000000 
-9.978673 17.085709 -0.390683 -105.714280 86.525323 -94.781917 -12.866663 2.259852 -0.624225 -2.085138 5.248791 -15.924166 1.308819 2.923086 58.681256 2.386808 12.278409 17.091945 4.138600 -0.000000 -44.128800 7.324354 -1.669943 2.775253 13.728168 5.303442 -27.719744 3.235104 -0.221750 11.588989 -0.152213 -1.590501 4.465185 -1.033500 0.000000 -28.471000 5.858894 -2.685392 -2.120193 0.211273 -3.255713 -3.345242 -7.761427 -3.311253 0.559919 10.234116 -5.823288 -6.134858 -4.900822 -0.385509 0.373038 0.000000 0.000000 0.000000 -4.289959 4.356997 1.693323 -67.758933 -6.589815 12.422990 -2.927480 -28.318756 -0.007491 5.016485 1.971591 0.085268 -0.079237 0.067475 0.000000 0.000000 0.000000 0.000000 0.000000 0.000000 0.000000 21.827142 -4.693809 0.721907 69.910184 2.149617 -5.279843 3.802737 15.365623 0.007521 0.838134 4.249737 0.028749 0.081823 -0.052124 -0.000000 0.000000 0.000000 0.000000 0.000000 0.000000 0.000000 
-9.830800 17.110676 -0.371482 -110.726966 86.451413 -99.741845 -12.913970 2.081363 -0.580304 -2.347591 4.862802 -17.637375 1.411047 3.017703 60.847377 2.586706 14.248062 16.122051 4.769000 -0.000000 -40.881899 7.296154 -1.705047 2.696208 13.880453 4.952431 -27.059555 3.265762 -0.166938 11.396402 -0.175415 -1.625267 3.880371 -1.012700 0.000000 -28.024700 5.766880 -2.646699 -2.102648 0.178599 -3.210070 -3.347000 -7.765021 -3.267083 0.542934 10.303817 -5.720322 -6.125579 -4.901398 -0.385885 0.376241 0.000000 0.000000 0.000000 -4.239663 4.357799 1.713785 -68.154053 -6.091702 12.733483 -2.927322 -27.678104 -0.007111 4.724547 2.192181 0.089743 -0.076782 0.063863 0.000000 0.000000 0.000000 0.000000 0.000000 0.000000 0.000000 21.885032 -4.532679 0.736919 69.856838 2.596910 -4.915686 3.789481 15.490348 0.007685 0.809830 4.364422 0.028460 0.081534 -0.054039 -0.000000 0.000000 0.000000 0.000000 0.000000 0.000000 0.000000 
-9.684614 17.136228 -0.352137 -115.554156 86.389713 -104.501677 -12.943971 1.910816 -0.528102 -2.675309 4.427440 -19.329679 1.502843 3.112879 62.794223 2.769483 16.084784 14.768391 5.225800 0.000000 -38.278800 7.280153 -1.729981 2.624893 13.965278 4.626087 -26.393362 3.289420 -0.103971 11.120013 -0.197273 -1.663119 3.367677 -0.994799 0.000000 -27.718500 5.631335 -2.604373 -2.097931 0.138335 -3.158493 -3.350464 -7.769424 -3.217259 0.525948 10.370848 -5.610039 -6.107341 -4.901696 -0.386314 0.381764 0.000000 0.000000 0.000000 -4.213327 4.359190 1.734996 -68.484154 -5.591566 13.082274 -2.929145 -27.097875 -0.006727 4.418476 2.409481 0.092721 -0.074558 0.060162 0.000000 0.000000 0.000000 0.000000 0.000000 0.000000 0.000000 21.939156 -4.363647 0.750548 69.809343 3.055857 -4.571214 3.773674 15.625793 0.007850 0.772630 4.485458 0.027772 0.081249 -0.056104 -0.000000 0.000000 0.000000 0.000000 0.000000 0.000000 0.000000 
